<svg width="512" height="512" viewBox="0 0 512 512" fill="none" xmlns="http://www.w3.org/2000/svg">
<g clip-path="url(#clip0_1_5)">
<path d="M256 512C397.385 512 512 397.385 512 256C512 114.615 397.385 0 256 0C114.615 0 0 114.615 0 256C0 397.385 114.615 512 256 512Z" fill="#4F39F6"/>
<path d="M224.8 460.8C337.908 460.8 429.6 369.108 429.6 256C429.6 142.892 337.908 51.2 224.8 51.2C111.692 51.2 20 142.892 20 256C20 369.108 111.692 460.8 224.8 460.8Z" fill="#665AF4"/>
<path d="M192.21 409.6C277.041 409.6 345.81 340.831 345.81 256C345.81 171.169 277.041 102.4 192.21 102.4C107.379 102.4 38.61 171.169 38.61 256C38.61 340.831 107.379 409.6 192.21 409.6Z" fill="#7074F9"/>
<path d="M159.84 355.84C214.98 355.84 259.68 311.14 259.68 256C259.68 200.86 214.98 156.16 159.84 156.16C104.7 156.16 60 200.86 60 256C60 311.14 104.7 355.84 159.84 355.84Z" fill="#848BF9"/>
</g>
<defs>
<clipPath id="clip0_1_5">
<rect width="512" height="512" fill="white"/>
</clipPath>
</defs>
</svg>
