<svg width="512" height="512" viewBox="0 0 512 512" fill="none" xmlns="http://www.w3.org/2000/svg" role="img"><title>Cal.com</title><path d="M151.725 370.498C88.5969 370.498 41 320.46 41 258.508C41 196.556 85.9665 146.142 151.725 146.142C186.671 146.142 210.595 156.927 229.509 181.256L199.072 206.463C186.421 192.919 170.889 186.147 151.725 186.147C109.013 186.147 85.5907 218.879 85.5907 258.383C85.5907 297.887 111.268 329.991 151.725 329.991C170.639 329.991 186.797 323.345 199.823 309.675L229.759 336.011C211.597 359.713 186.797 370.498 151.725 370.498ZM360.149 205.962H401.108V366.611H360.149V343.159C351.757 359.713 337.478 371 310.423 371C267.085 371 232.389 333.252 232.389 287.101C232.389 240.7 267.085 203.203 310.423 203.203C337.353 203.203 351.757 214.364 360.149 231.044V205.962ZM361.527 286.851C361.527 261.769 344.242 240.951 317.187 240.951C291.134 240.951 274.099 261.894 274.099 286.851C274.099 311.18 291.134 332.75 317.187 332.75C343.992 332.75 361.527 311.807 361.527 286.851ZM430.042 141H471V366.234H430.042V141Z" fill="white"/></svg>
