<svg role="img" viewBox="0 0 24 24" xmlns="http://www.w3.org/2000/svg"><title>Meta</title><path d="M6.915 11.32c0-2.385 1.636-4.32 3.657-4.32 1.013 0 1.93.473 2.624 1.244l1.046-1.046C13.22 6.425 12.025 6 10.572 6 7.5 6 5 8.37 5 11.32c0 1.727.784 3.268 2.01 4.29l1.076-1.076C7.353 13.81 6.915 12.62 6.915 11.32zm10.17.16c0 1.3-.44 2.49-1.17 3.214l1.076 1.076C17.216 14.748 18 13.207 18 11.48c0-2.95-2.5-5.32-5.572-5.32-1.013 0-1.96.28-2.763.769l1.046 1.046c.52-.27 1.1-.43 1.717-.43 2.02 0 3.657 1.935 3.657 4.32z" fill="#0082FB"/></svg>
