<svg xmlns="http://www.w3.org/2000/svg" viewBox="0 0 256 256"><path d="M128 0C57.344 0 0 57.344 0 128c0 70.656 57.344 128 128 128 70.656 0 128-57.344 128-128C256 57.344 198.656 0 128 0zm0 33.792c52.224 0 94.208 41.984 94.208 94.208S180.224 222.208 128 222.208 33.792 180.224 33.792 128 75.776 33.792 128 33.792zm31.744 99.328c14.704 0 26.624 11.92 26.624 26.624S174.448 186.368 159.744 186.368 133.12 174.448 133.12 159.744s11.92-26.624 26.624-26.624zm-63.488 0c14.704 0 26.624 11.92 26.624 26.624S110.96 186.368 96.256 186.368 69.632 174.448 69.632 159.744s11.92-26.624 26.624-26.624zm63.488-63.488c14.704 0 26.624 11.92 26.624 26.624s-11.92 26.624-26.624 26.624S133.12 110.96 133.12 96.256s11.92-26.624 26.624-26.624zm-63.488 0c14.704 0 26.624 11.92 26.624 26.624S96.96 122.88 96.256 122.88 69.632 110.96 69.632 96.256s11.92-26.624 26.624-26.624z" fill="#F22F46"/></svg>
