<svg fill="none" viewBox="0 0 57 16" xmlns="http://www.w3.org/2000/svg"><path clip-rule="evenodd" d="M1.707.305C3.211-.426 5.023.202 5.754 1.707L7.872 6.072l2.153-4.379C10.763.192 12.578-.427 14.079.311c1.501.738 2.12 2.553 1.382 4.054L10.572 14.308A2.998 2.998 0 0 1 7.847 16C6.69 15.997 5.636 15.335 5.13 14.294L.305 4.351C-.426 2.847.202 1.035 1.707.305zM23.353.001a2.998 2.998 0 0 1 2.717 1.706L30.895 11.65a2.998 2.998 0 0 1-.158 2.929A2.998 2.998 0 0 1 28.171 16H18.457a2.998 2.998 0 0 1-2.571-4.365L20.628 1.693A2.998 2.998 0 0 1 23.353.001zm11.046 3.028A3.03 3.03 0 0 1 37.428.001h4.285c.084 0 .168.004.252.011l1.204.1c.362.03 1.002.117 1.676.473 3.507 1.855 3.507 6.921 0 8.775-.674.357-1.314.443-1.676.474l-1.204.1c-.084.007-.168.011-.252.011H40.456v3.028A3.03 3.03 0 0 1 37.428 16a3.03 3.03 0 0 1-3.029-3.028V3.029zm19.028 0A3.03 3.03 0 0 1 56.455 0a3.03 3.03 0 0 1 0 6.057v6.915A3.03 3.03 0 0 1 53.427 16a3.03 3.03 0 0 1-3.029-3.028V3.029A3.03 3.03 0 0 1 53.427.001z" fill="#6366F1" fill-rule="evenodd"/></svg>
